<svg width="437" height="292" viewBox="0 0 437 292" fill="none" xmlns="http://www.w3.org/2000/svg">
<path d="M145.696 0.544189C65.2878 0.544189 0 65.832 0 146.24C0 220.53 55.7612 281.972 127.691 290.8L160.204 187.493C155.659 189.066 150.765 189.94 145.696 189.94C121.486 189.94 101.996 170.45 101.996 146.24C101.996 122.03 121.486 102.54 145.696 102.54C160.466 102.54 173.489 109.882 181.355 121.069C196.65 76.32 210.547 45.9048 226.978 25.3658C203.729 9.72119 175.761 0.544189 145.696 0.544189ZM309.396 109.82C346.401 120.466 390.092 109.82 390.092 109.82C377.419 165.171 337.215 199.842 279.243 204.064C256.956 255.778 205.539 291.901 145.67 291.901L189.37 153.013C234.293 10.2456 257.314 0.570412 363.846 0.570412H437C424.764 54.47 382.594 95.6441 309.396 109.82Z" fill="url(#paint0_linear_103_217)"/>
<defs>
<linearGradient id="paint0_linear_103_217" x1="1.04828" y1="-2.44078" x2="510.262" y2="119.162" gradientUnits="userSpaceOnUse">
<stop stop-color="#BC3CD8"/>
<stop offset="1" stop-color="#C54B8C"/>
</linearGradient>
</defs>
</svg>
